<svg xmlns="http://www.w3.org/2000/svg" xmlns:xlink="http://www.w3.org/1999/xlink" width="816" zoomAndPan="magnify" viewBox="0 0 612 791.999994" height="1056" preserveAspectRatio="xMidYMid meet" version="1.0"><defs><clipPath id="b0da9621f3"><path d="M 10.015625 61.199219 L 601.765625 61.199219 L 601.765625 720 L 10.015625 720 Z M 10.015625 61.199219 " clip-rule="nonzero"/></clipPath></defs><g clip-path="url(#b0da9621f3)"><path fill="#000000" d="M 10.046875 327.5625 C 10.046875 180.671875 129.53125 61.199219 276.441406 61.199219 C 408.074219 61.199219 520.640625 158.34375 539.835938 288 L 397.234375 326.519531 C 396.582031 260.449219 342.78125 206.785156 276.574219 206.785156 C 209.972656 206.785156 155.78125 260.972656 155.78125 327.5625 C 155.78125 394.15625 209.972656 448.339844 276.574219 448.339844 C 304.386719 448.339844 330.898438 438.941406 352.3125 421.574219 L 352.3125 581.785156 C 350.746094 581.132812 349.179688 580.609375 347.613281 580.085938 C 347.480469 579.957031 347.351562 579.957031 347.089844 579.957031 C 345.652344 579.566406 344.085938 579.042969 342.652344 578.652344 C 342.390625 578.652344 342.128906 578.519531 341.734375 578.519531 C 340.300781 578.257812 338.863281 577.867188 337.425781 577.605469 C 337.035156 577.605469 336.644531 577.476562 336.25 577.476562 C 334.945312 577.214844 333.507812 577.082031 332.074219 576.953125 C 331.679688 576.953125 331.160156 576.953125 330.765625 576.824219 C 329.460938 576.691406 328.023438 576.5625 326.71875 576.5625 L 325.152344 576.5625 C 323.847656 576.5625 322.539062 576.5625 321.234375 576.5625 L 319.277344 576.691406 C 318.101562 576.691406 316.792969 576.824219 315.617188 576.824219 C 314.835938 576.824219 314.050781 576.953125 313.398438 577.082031 C 312.222656 577.214844 311.179688 577.34375 310.003906 577.476562 C 309.089844 577.605469 308.304688 577.738281 307.390625 577.867188 C 306.347656 577.996094 305.300781 578.128906 304.257812 578.390625 C 303.34375 578.519531 302.300781 578.78125 301.386719 579.042969 C 300.472656 579.304688 299.425781 579.433594 298.511719 579.695312 C 297.46875 579.957031 296.421875 580.347656 295.378906 580.609375 C 294.464844 580.871094 293.550781 581 292.636719 581.390625 C 291.589844 581.652344 290.546875 582.175781 289.5 582.4375 C 288.585938 582.699219 287.804688 582.960938 286.890625 583.351562 C 285.84375 583.742188 284.671875 584.132812 283.625 584.65625 C 282.839844 584.917969 281.925781 585.308594 281.144531 585.570312 C 280.097656 585.960938 279.054688 586.484375 278.011719 587.007812 C 277.097656 587.398438 276.3125 587.789062 275.527344 588.183594 C 274.484375 588.574219 273.441406 589.226562 272.527344 589.75 C 271.613281 590.140625 270.828125 590.664062 269.914062 591.054688 C 269 591.578125 268.085938 592.097656 267.171875 592.621094 C 266.386719 593.011719 265.605469 593.40625 264.953125 593.925781 C 121.699219 587.398438 10.046875 470.800781 10.046875 327.5625 Z M 385.222656 399.246094 L 385.222656 570.816406 C 469.449219 533.082031 528.214844 454.609375 540.359375 363.210938 Z M 601.472656 574.734375 L 601.472656 283.300781 C 601.472656 282.515625 600.949219 282.125 600.820312 281.863281 C 600.558594 281.601562 600.035156 281.339844 599.253906 281.601562 L 396.84375 336.179688 L 362.5 345.453125 C 361.714844 345.714844 361.195312 346.367188 361.195312 347.148438 L 361.195312 596.800781 L 354.402344 593.011719 C 353.488281 592.492188 352.445312 591.96875 351.398438 591.445312 C 349.570312 590.53125 347.613281 589.75 345.652344 589.097656 C 345.132812 588.964844 344.609375 588.835938 344.085938 588.574219 C 342.257812 588.050781 340.300781 587.53125 338.339844 587.007812 C 338.210938 587.007812 338.078125 586.875 337.949219 586.875 C 335.859375 586.484375 333.640625 586.09375 331.421875 585.832031 C 330.898438 585.832031 330.375 585.703125 329.851562 585.703125 C 327.894531 585.570312 325.804688 585.441406 323.714844 585.441406 L 322.933594 585.441406 C 320.84375 585.441406 318.882812 585.570312 316.664062 585.703125 C 316.273438 585.703125 315.75 585.832031 315.226562 585.832031 C 313.660156 585.960938 311.960938 586.222656 310.394531 586.484375 C 309.742188 586.617188 309.089844 586.617188 308.4375 586.746094 C 306.871094 587.007812 305.433594 587.269531 303.867188 587.660156 C 303.214844 587.789062 302.558594 587.921875 301.90625 588.050781 C 299.949219 588.441406 298.121094 588.964844 296.160156 589.617188 C 295.902344 589.617188 295.769531 589.75 295.507812 589.75 C 293.417969 590.402344 291.199219 591.054688 289.109375 591.839844 C 288.457031 591.96875 287.933594 592.230469 287.414062 592.492188 C 285.84375 593.144531 284.277344 593.796875 282.710938 594.449219 C 282.058594 594.710938 281.273438 595.101562 280.621094 595.363281 C 279.054688 596.015625 277.617188 596.800781 276.183594 597.582031 L 274.222656 598.496094 C 272.132812 599.542969 270.175781 600.71875 268.085938 602.023438 L 266.910156 602.804688 C 266.78125 602.804688 266.648438 602.9375 266.519531 603.066406 C 226.949219 628.007812 208.800781 670.574219 226.035156 697.863281 C 234.261719 710.789062 249.28125 718.492188 268.347656 719.40625 C 288.066406 720.449219 309.613281 714.183594 329.070312 701.910156 C 355.839844 685.066406 373.730469 659.34375 375.820312 635.058594 L 376.082031 632.835938 L 376.082031 391.933594 L 550.9375 351.328125 L 586.714844 342.972656 L 586.714844 541.175781 L 579.925781 537.257812 C 557.335938 524.464844 521.945312 528.511719 492.042969 547.445312 C 472.582031 559.71875 457.828125 576.429688 450.253906 594.710938 C 442.941406 612.46875 443.332031 629.3125 451.558594 642.238281 C 468.796875 669.527344 515.023438 671.355469 554.59375 646.417969 C 583.320312 628.398438 601.734375 600.195312 601.472656 574.734375 Z M 388.09375 329 L 388.09375 327.5625 C 388.09375 265.933594 338.078125 215.925781 276.441406 215.925781 C 214.804688 215.925781 164.792969 265.933594 164.792969 327.5625 C 164.792969 389.191406 214.9375 439.203125 276.441406 439.203125 C 304.648438 439.203125 331.421875 428.753906 352.183594 409.5625 L 352.183594 364.777344 C 338.339844 392.71875 309.742188 412.042969 276.441406 412.042969 C 229.824219 412.042969 191.953125 374.175781 191.953125 327.5625 C 191.953125 280.949219 229.824219 243.085938 276.441406 243.085938 C 323.0625 243.085938 360.933594 280.949219 360.933594 327.5625 C 360.933594 330.566406 360.800781 333.4375 360.410156 336.441406 Z M 276.441406 309.414062 C 266.386719 309.414062 258.160156 317.640625 258.160156 327.695312 C 258.160156 337.75 266.386719 345.972656 276.441406 345.972656 C 286.5 345.972656 294.726562 337.75 294.726562 327.695312 C 294.726562 317.507812 286.5 309.414062 276.441406 309.414062 Z M 351.792969 327.5625 C 351.792969 369.085938 317.96875 402.902344 276.441406 402.902344 C 234.917969 402.902344 201.09375 369.085938 201.09375 327.5625 C 201.09375 286.042969 234.917969 252.222656 276.441406 252.222656 C 317.96875 252.222656 351.792969 286.171875 351.792969 327.5625 Z M 303.867188 327.5625 C 303.867188 312.417969 291.589844 300.144531 276.441406 300.144531 C 261.296875 300.144531 249.019531 312.417969 249.019531 327.5625 C 249.019531 342.710938 261.296875 354.984375 276.441406 354.984375 C 291.589844 355.113281 303.867188 342.710938 303.867188 327.5625 Z M 303.867188 327.5625 " fill-opacity="1" fill-rule="nonzero"/></g></svg>