<svg xmlns="http://www.w3.org/2000/svg" xmlns:xlink="http://www.w3.org/1999/xlink" width="816" zoomAndPan="magnify" viewBox="0 0 612 791.999994" height="1056" preserveAspectRatio="xMidYMid meet" version="1.0"><defs><clipPath id="57eda8c8c0"><path d="M 25.605469 77.121094 L 599.355469 77.121094 L 599.355469 650.871094 L 25.605469 650.871094 Z M 25.605469 77.121094 " clip-rule="nonzero"/></clipPath></defs><g clip-path="url(#57eda8c8c0)"><path fill="#000000" d="M 312.4375 77.121094 C 153.996094 77.121094 25.5625 205.554688 25.5625 363.996094 C 25.5625 522.433594 153.996094 650.871094 312.4375 650.871094 C 470.863281 650.871094 599.3125 522.433594 599.3125 363.996094 C 599.3125 205.554688 470.863281 77.121094 312.4375 77.121094 Z M 132.324219 543.292969 C 132.324219 493.777344 152.390625 448.953125 184.835938 416.507812 C 217.28125 384.0625 262.105469 363.996094 311.621094 363.996094 C 262.105469 363.996094 221.972656 323.859375 221.972656 274.347656 C 221.972656 224.832031 262.105469 184.699219 311.621094 184.699219 C 361.132812 184.699219 401.269531 224.832031 401.269531 274.347656 C 401.269531 323.859375 361.132812 363.996094 311.621094 363.996094 C 361.132812 363.996094 405.957031 384.0625 438.402344 416.507812 C 470.847656 448.953125 490.917969 493.777344 490.917969 543.292969 Z M 132.324219 543.292969 " fill-opacity="1" fill-rule="nonzero"/></g></svg>