<svg xmlns="http://www.w3.org/2000/svg" xmlns:xlink="http://www.w3.org/1999/xlink" width="816" zoomAndPan="magnify" viewBox="0 0 612 791.999994" height="1056" preserveAspectRatio="xMidYMid meet" version="1.0"><defs><clipPath id="b2d88ffc5c"><path d="M 9.609375 99.609375 L 602.109375 99.609375 L 602.109375 692.109375 L 9.609375 692.109375 Z M 9.609375 99.609375 " clip-rule="nonzero"/></clipPath></defs><g clip-path="url(#b2d88ffc5c)"><path fill="#fbceff" d="M 305.628906 99.609375 C 469.429688 99.609375 602.378906 231.828125 602.378906 395.628906 C 602.378906 559.429688 469.429688 692.378906 305.628906 692.378906 C 141.828125 692.378906 9.609375 559.429688 9.609375 395.628906 C 9.609375 231.828125 141.828125 99.609375 305.628906 99.609375 Z M 305.628906 315.566406 L 379.816406 209.058594 L 492.199219 209.058594 L 362.1875 395.628906 L 492.199219 582.199219 L 379.816406 582.199219 L 305.628906 476.425781 L 231.441406 582.199219 L 119.058594 582.199219 L 249.804688 395.628906 L 119.058594 209.058594 L 231.441406 209.058594 Z M 305.628906 315.566406 " fill-opacity="1" fill-rule="evenodd"/></g></svg>