<svg xmlns="http://www.w3.org/2000/svg" xmlns:xlink="http://www.w3.org/1999/xlink" width="816" zoomAndPan="magnify" viewBox="0 0 612 791.999994" height="1056" preserveAspectRatio="xMidYMid meet" version="1.0"><defs><clipPath id="b32ff3505a"><path d="M 7.222656 112.089844 L 589.972656 112.089844 L 589.972656 694.839844 L 7.222656 694.839844 Z M 7.222656 112.089844 " clip-rule="nonzero"/></clipPath></defs><g clip-path="url(#b32ff3505a)"><path fill="#1e1b1e" d="M 413.292969 259.167969 L 379.179688 259.167969 C 345.53125 259.167969 335.070312 280.042969 335.070312 301.460938 L 335.070312 352.230469 L 410.128906 352.230469 L 398.113281 430.492188 L 335.070312 430.492188 L 335.070312 619.65625 L 250.441406 619.65625 L 250.441406 430.492188 L 181.710938 430.492188 L 181.710938 352.230469 L 250.441406 352.230469 L 250.441406 292.605469 C 250.441406 224.761719 290.878906 187.230469 352.699219 187.230469 C 382.339844 187.230469 413.292969 192.542969 413.292969 192.542969 Z M 298.597656 112.003906 C 137.644531 112.003906 7.136719 242.511719 7.136719 403.464844 C 7.136719 564.417969 137.644531 694.921875 298.597656 694.921875 C 459.550781 694.921875 590.058594 564.417969 590.058594 403.464844 C 590.058594 242.511719 459.550781 112.003906 298.597656 112.003906 Z M 298.597656 112.003906 " fill-opacity="1" fill-rule="nonzero"/></g></svg>