<svg xmlns="http://www.w3.org/2000/svg" xmlns:xlink="http://www.w3.org/1999/xlink" width="816" zoomAndPan="magnify" viewBox="0 0 612 791.999994" height="1056" preserveAspectRatio="xMidYMid meet" version="1.0"><defs><clipPath id="3a347e39ef"><path d="M 26 152.660156 L 586 152.660156 L 586 639.410156 L 26 639.410156 Z M 26 152.660156 " clip-rule="nonzero"/></clipPath></defs><g clip-path="url(#3a347e39ef)"><path fill="#000000" d="M 38.328125 152.660156 C 31.597656 152.660156 26.160156 158.097656 26.160156 164.828125 L 26.160156 505.554688 C 26.160156 512.28125 31.597656 517.722656 38.328125 517.722656 L 452.035156 517.722656 C 458.761719 517.722656 464.203125 512.28125 464.203125 505.554688 L 464.203125 164.828125 C 464.203125 158.097656 458.761719 152.660156 452.035156 152.660156 Z M 50.496094 176.996094 L 439.867188 176.996094 L 439.867188 378.828125 L 375.460938 314.417969 C 370.875 309.832031 363.609375 309.777344 358.828125 314.039062 L 268.234375 404.636719 C 265.859375 407.011719 262.734375 408.203125 259.628906 408.203125 C 256.527344 408.203125 253.398438 407.011719 251.027344 404.636719 C 246.269531 399.878906 246.269531 392.1875 251.027344 387.429688 L 290.050781 348.429688 L 181.15625 229.617188 C 176.605469 224.675781 168.9375 224.316406 164 228.832031 L 50.496094 332.003906 Z M 366.859375 213.503906 C 366.0625 213.503906 365.269531 213.542969 364.472656 213.621094 C 363.679688 213.699219 362.894531 213.816406 362.113281 213.96875 C 361.332031 214.125 360.558594 214.320312 359.796875 214.550781 C 359.03125 214.78125 358.285156 215.050781 357.546875 215.355469 C 356.8125 215.660156 356.089844 216 355.386719 216.375 C 354.683594 216.753906 354.003906 217.160156 353.339844 217.605469 C 352.675781 218.046875 352.039062 218.523438 351.421875 219.027344 C 350.804688 219.53125 350.214844 220.066406 349.652344 220.632812 C 349.089844 221.195312 348.554688 221.785156 348.046875 222.402344 C 347.542969 223.015625 347.066406 223.65625 346.625 224.320312 C 346.183594 224.980469 345.773438 225.664062 345.398438 226.367188 C 345.023438 227.070312 344.679688 227.789062 344.375 228.527344 C 344.070312 229.261719 343.804688 230.011719 343.570312 230.777344 C 343.339844 231.539062 343.148438 232.3125 342.992188 233.09375 C 342.835938 233.875 342.71875 234.660156 342.640625 235.453125 C 342.5625 236.25 342.523438 237.042969 342.523438 237.839844 C 342.523438 238.636719 342.5625 239.433594 342.640625 240.226562 C 342.71875 241.019531 342.835938 241.808594 342.992188 242.589844 C 343.148438 243.371094 343.339844 244.140625 343.570312 244.90625 C 343.804688 245.667969 344.070312 246.417969 344.375 247.152344 C 344.679688 247.890625 345.023438 248.609375 345.398438 249.3125 C 345.773438 250.015625 346.183594 250.699219 346.625 251.363281 C 347.066406 252.023438 347.542969 252.664062 348.046875 253.28125 C 348.554688 253.894531 349.089844 254.484375 349.652344 255.050781 C 350.214844 255.613281 350.804688 256.148438 351.421875 256.652344 C 352.039062 257.160156 352.675781 257.632812 353.339844 258.078125 C 354.003906 258.519531 354.683594 258.929688 355.386719 259.304688 C 356.089844 259.679688 356.8125 260.019531 357.546875 260.324219 C 358.285156 260.628906 359.03125 260.898438 359.796875 261.128906 C 360.558594 261.363281 361.332031 261.554688 362.113281 261.710938 C 362.894531 261.867188 363.679688 261.984375 364.472656 262.0625 C 365.269531 262.140625 366.0625 262.179688 366.859375 262.179688 C 367.65625 262.179688 368.453125 262.140625 369.246094 262.0625 C 370.039062 261.984375 370.824219 261.867188 371.609375 261.710938 C 372.390625 261.554688 373.160156 261.363281 373.925781 261.128906 C 374.6875 260.898438 375.4375 260.628906 376.171875 260.324219 C 376.910156 260.019531 377.628906 259.679688 378.332031 259.304688 C 379.035156 258.929688 379.71875 258.519531 380.378906 258.078125 C 381.042969 257.632812 381.683594 257.160156 382.296875 256.652344 C 382.914062 256.148438 383.503906 255.613281 384.066406 255.050781 C 384.632812 254.484375 385.164062 253.894531 385.671875 253.28125 C 386.175781 252.664062 386.652344 252.023438 387.09375 251.363281 C 387.535156 250.699219 387.945312 250.015625 388.320312 249.3125 C 388.699219 248.609375 389.039062 247.890625 389.34375 247.152344 C 389.648438 246.417969 389.917969 245.667969 390.148438 244.90625 C 390.378906 244.140625 390.574219 243.371094 390.726562 242.589844 C 390.882812 241.808594 391 241.019531 391.078125 240.226562 C 391.15625 239.433594 391.195312 238.636719 391.195312 237.839844 C 391.195312 237.042969 391.15625 236.25 391.078125 235.453125 C 391 234.660156 390.882812 233.875 390.726562 233.09375 C 390.574219 232.3125 390.378906 231.539062 390.148438 230.777344 C 389.917969 230.011719 389.648438 229.261719 389.34375 228.527344 C 389.039062 227.789062 388.699219 227.070312 388.320312 226.367188 C 387.945312 225.664062 387.535156 224.980469 387.09375 224.320312 C 386.652344 223.65625 386.175781 223.015625 385.671875 222.402344 C 385.164062 221.785156 384.632812 221.195312 384.066406 220.632812 C 383.503906 220.066406 382.914062 219.53125 382.296875 219.027344 C 381.683594 218.523438 381.042969 218.046875 380.378906 217.605469 C 379.71875 217.160156 379.035156 216.753906 378.332031 216.375 C 377.628906 216 376.910156 215.660156 376.171875 215.355469 C 375.4375 215.050781 374.6875 214.78125 373.925781 214.550781 C 373.160156 214.320312 372.390625 214.125 371.609375 213.96875 C 370.824219 213.816406 370.039062 213.699219 369.246094 213.621094 C 368.453125 213.542969 367.65625 213.503906 366.859375 213.503906 Z M 488.539062 213.503906 L 488.539062 237.839844 L 500.707031 237.839844 L 500.707031 554.226562 L 111.335938 554.226562 L 111.335938 542.058594 L 87 542.058594 L 87 566.398438 C 87 567.195312 87.078125 567.988281 87.234375 568.769531 C 87.390625 569.554688 87.621094 570.316406 87.925781 571.054688 C 88.230469 571.792969 88.605469 572.492188 89.050781 573.15625 C 89.496094 573.820312 90 574.4375 90.5625 575 C 91.128906 575.566406 91.742188 576.070312 92.40625 576.515625 C 93.070312 576.957031 93.773438 577.332031 94.511719 577.640625 C 95.25 577.945312 96.011719 578.175781 96.792969 578.332031 C 97.578125 578.488281 98.367188 578.566406 99.167969 578.566406 L 512.875 578.566406 C 513.671875 578.566406 514.464844 578.488281 515.246094 578.332031 C 516.03125 578.175781 516.792969 577.945312 517.53125 577.640625 C 518.269531 577.332031 518.96875 576.957031 519.632812 576.515625 C 520.296875 576.070312 520.914062 575.566406 521.476562 575 C 522.042969 574.4375 522.546875 573.820312 522.992188 573.15625 C 523.433594 572.492188 523.808594 571.792969 524.117188 571.054688 C 524.421875 570.316406 524.652344 569.554688 524.808594 568.769531 C 524.964844 567.988281 525.042969 567.195312 525.042969 566.398438 L 525.042969 225.671875 C 525.042969 224.871094 524.964844 224.082031 524.808594 223.296875 C 524.652344 222.515625 524.421875 221.753906 524.117188 221.015625 C 523.808594 220.277344 523.433594 219.574219 522.992188 218.910156 C 522.546875 218.246094 522.042969 217.632812 521.476562 217.066406 C 520.914062 216.503906 520.296875 215.996094 519.632812 215.554688 C 518.96875 215.109375 518.269531 214.734375 517.53125 214.429688 C 516.792969 214.125 516.03125 213.894531 515.246094 213.738281 C 514.464844 213.582031 513.671875 213.503906 512.875 213.503906 Z M 549.378906 274.347656 L 549.378906 298.683594 L 561.546875 298.683594 L 561.546875 615.070312 L 172.175781 615.070312 L 172.175781 602.902344 L 147.839844 602.902344 L 147.839844 627.242188 C 147.839844 628.039062 147.917969 628.832031 148.074219 629.613281 C 148.226562 630.398438 148.460938 631.160156 148.765625 631.898438 C 149.070312 632.636719 149.445312 633.335938 149.890625 634 C 150.332031 634.664062 150.835938 635.28125 151.402344 635.84375 C 151.96875 636.410156 152.582031 636.914062 153.246094 637.359375 C 153.910156 637.800781 154.613281 638.175781 155.351562 638.484375 C 156.089844 638.789062 156.847656 639.019531 157.632812 639.175781 C 158.417969 639.332031 159.207031 639.410156 160.007812 639.410156 L 573.714844 639.410156 C 574.511719 639.410156 575.304688 639.332031 576.085938 639.175781 C 576.871094 639.019531 577.632812 638.789062 578.371094 638.484375 C 579.109375 638.175781 579.808594 637.800781 580.472656 637.359375 C 581.136719 636.914062 581.75 636.410156 582.316406 635.84375 C 582.882812 635.28125 583.386719 634.664062 583.828125 634 C 584.273438 633.335938 584.648438 632.636719 584.953125 631.898438 C 585.261719 631.160156 585.492188 630.398438 585.648438 629.613281 C 585.804688 628.832031 585.882812 628.039062 585.882812 627.242188 L 585.882812 286.515625 C 585.882812 285.714844 585.804688 284.925781 585.648438 284.140625 C 585.492188 283.359375 585.261719 282.597656 584.953125 281.859375 C 584.648438 281.121094 584.273438 280.417969 583.828125 279.753906 C 583.386719 279.089844 582.882812 278.476562 582.316406 277.910156 C 581.75 277.347656 581.136719 276.84375 580.472656 276.398438 C 579.808594 275.953125 579.109375 275.578125 578.371094 275.273438 C 577.632812 274.96875 576.871094 274.738281 576.085938 274.582031 C 575.304688 274.425781 574.511719 274.347656 573.714844 274.347656 Z M 549.378906 274.347656 " fill-opacity="1" fill-rule="nonzero"/></g></svg>