<svg xmlns="http://www.w3.org/2000/svg" xmlns:xlink="http://www.w3.org/1999/xlink" width="816" zoomAndPan="magnify" viewBox="0 0 612 791.999994" height="1056" preserveAspectRatio="xMidYMid meet" version="1.0"><defs><clipPath id="130cbdf0e8"><path d="M 38.769531 128.769531 L 573.519531 128.769531 L 573.519531 663.519531 L 38.769531 663.519531 Z M 38.769531 128.769531 " clip-rule="nonzero"/></clipPath></defs><g clip-path="url(#130cbdf0e8)"><path fill="#000000" d="M 306.136719 128.769531 C 158.476562 128.769531 38.769531 248.476562 38.769531 396.144531 C 38.769531 543.816406 158.476562 663.519531 306.136719 663.519531 C 453.792969 663.519531 573.511719 543.816406 573.511719 396.144531 C 573.511719 248.476562 453.773438 128.769531 306.136719 128.769531 Z M 442.652344 547.464844 C 442.652344 548.234375 442.613281 549.003906 442.539062 549.769531 C 442.464844 550.535156 442.351562 551.296875 442.203125 552.050781 C 442.054688 552.804688 441.867188 553.550781 441.644531 554.289062 C 441.421875 555.027344 441.164062 555.75 440.871094 556.460938 C 440.574219 557.171875 440.246094 557.867188 439.886719 558.546875 C 439.523438 559.226562 439.128906 559.886719 438.703125 560.53125 C 438.277344 561.171875 437.820312 561.789062 437.332031 562.386719 C 436.847656 562.980469 436.332031 563.550781 435.789062 564.097656 C 435.246094 564.644531 434.675781 565.164062 434.082031 565.652344 C 433.488281 566.140625 432.875 566.601562 432.234375 567.03125 C 431.597656 567.460938 430.9375 567.859375 430.261719 568.226562 C 429.582031 568.589844 428.886719 568.921875 428.179688 569.21875 C 427.46875 569.515625 426.746094 569.777344 426.007812 570.003906 C 425.273438 570.230469 424.527344 570.421875 423.773438 570.574219 C 423.019531 570.730469 422.257812 570.84375 421.492188 570.925781 C 420.726562 571.003906 419.960938 571.046875 419.191406 571.050781 L 361.921875 571.339844 C 361.148438 571.34375 360.375 571.308594 359.601562 571.234375 C 358.832031 571.164062 358.066406 571.054688 357.304688 570.90625 C 356.542969 570.757812 355.792969 570.574219 355.050781 570.351562 C 354.308594 570.128906 353.578125 569.871094 352.859375 569.578125 C 352.144531 569.285156 351.441406 568.957031 350.757812 568.59375 C 350.074219 568.230469 349.40625 567.835938 348.761719 567.40625 C 348.117188 566.976562 347.492188 566.519531 346.890625 566.027344 C 346.292969 565.539062 345.714844 565.019531 345.167969 564.472656 C 344.617188 563.925781 344.097656 563.355469 343.601562 562.757812 C 343.109375 562.160156 342.648438 561.539062 342.214844 560.894531 C 341.785156 560.25 341.386719 559.589844 341.019531 558.90625 C 340.652344 558.222656 340.320312 557.523438 340.023438 556.808594 C 339.726562 556.09375 339.464844 555.363281 339.238281 554.621094 C 339.011719 553.878906 338.824219 553.128906 338.671875 552.371094 C 338.519531 551.609375 338.40625 550.84375 338.332031 550.074219 C 338.253906 549.300781 338.214844 548.527344 338.214844 547.753906 L 338.214844 473.851562 C 338.230469 470.722656 337.636719 467.71875 336.425781 464.832031 C 335.753906 463.203125 334.957031 461.632812 334.042969 460.125 C 333.128906 458.617188 332.105469 457.1875 330.972656 455.835938 C 329.839844 454.484375 328.609375 453.226562 327.28125 452.066406 C 325.957031 450.902344 324.546875 449.847656 323.058594 448.902344 C 321.570312 447.957031 320.019531 447.128906 318.402344 446.421875 C 316.789062 445.710938 315.128906 445.132812 313.425781 444.679688 C 311.71875 444.222656 309.992188 443.902344 308.238281 443.714844 C 306.484375 443.527344 304.726562 443.476562 302.964844 443.558594 C 301.199219 443.640625 299.457031 443.855469 297.726562 444.203125 C 296 444.554688 294.304688 445.035156 292.652344 445.644531 C 290.996094 446.253906 289.398438 446.984375 287.855469 447.839844 C 286.3125 448.695312 284.84375 449.664062 283.449219 450.742188 C 282.054688 451.824219 280.75 453.003906 279.539062 454.285156 C 278.324219 455.566406 277.21875 456.929688 276.214844 458.382812 C 275.210938 459.832031 274.324219 461.351562 273.554688 462.9375 C 272.78125 464.523438 272.136719 466.160156 271.621094 467.847656 C 270.910156 470.082031 270.566406 472.375 270.585938 474.71875 L 270.585938 546.40625 C 270.585938 547.175781 270.546875 547.945312 270.472656 548.710938 C 270.398438 549.476562 270.285156 550.238281 270.136719 550.992188 C 269.984375 551.75 269.800781 552.496094 269.578125 553.230469 C 269.355469 553.96875 269.09375 554.691406 268.800781 555.402344 C 268.507812 556.113281 268.179688 556.8125 267.816406 557.488281 C 267.457031 558.167969 267.0625 558.828125 266.636719 559.46875 C 266.210938 560.109375 265.753906 560.730469 265.265625 561.324219 C 264.777344 561.921875 264.261719 562.492188 263.71875 563.039062 C 263.175781 563.582031 262.609375 564.101562 262.015625 564.589844 C 261.421875 565.082031 260.804688 565.539062 260.167969 565.96875 C 259.527344 566.398438 258.871094 566.796875 258.191406 567.164062 C 257.515625 567.527344 256.820312 567.859375 256.109375 568.15625 C 255.398438 568.453125 254.675781 568.714844 253.941406 568.941406 C 253.207031 569.167969 252.460938 569.355469 251.707031 569.511719 C 250.953125 569.664062 250.191406 569.777344 249.425781 569.859375 C 248.660156 569.9375 247.890625 569.976562 247.121094 569.980469 L 189.921875 570.269531 C 189.144531 570.273438 188.371094 570.238281 187.597656 570.167969 C 186.824219 570.09375 186.058594 569.984375 185.296875 569.835938 C 184.535156 569.6875 183.78125 569.5 183.039062 569.277344 C 182.292969 569.054688 181.5625 568.796875 180.84375 568.5 C 180.125 568.207031 179.425781 567.875 178.738281 567.511719 C 178.054688 567.144531 177.386719 566.75 176.742188 566.320312 C 176.09375 565.886719 175.472656 565.425781 174.871094 564.9375 C 174.269531 564.445312 173.695312 563.921875 173.144531 563.375 C 172.597656 562.828125 172.074219 562.253906 171.582031 561.652344 C 171.089844 561.050781 170.628906 560.429688 170.195312 559.785156 C 169.765625 559.136719 169.367188 558.472656 169.003906 557.789062 C 168.636719 557.101562 168.304688 556.402344 168.007812 555.683594 C 167.714844 554.964844 167.453125 554.234375 167.230469 553.492188 C 167.003906 552.75 166.820312 551.996094 166.667969 551.234375 C 166.519531 550.472656 166.40625 549.703125 166.332031 548.933594 C 166.257812 548.160156 166.222656 547.382812 166.226562 546.609375 C 166.359375 506.644531 166.496094 466.679688 166.636719 426.714844 C 166.644531 425.089844 166.816406 423.480469 167.152344 421.890625 C 167.492188 420.300781 167.988281 418.761719 168.644531 417.273438 C 169.300781 415.785156 170.101562 414.378906 171.050781 413.058594 C 171.996094 411.734375 173.070312 410.523438 174.265625 409.421875 L 288.800781 304.1875 C 289.335938 303.691406 289.894531 303.226562 290.472656 302.785156 C 291.054688 302.34375 291.652344 301.929688 292.269531 301.542969 C 292.886719 301.15625 293.523438 300.800781 294.175781 300.472656 C 294.824219 300.148438 295.492188 299.851562 296.167969 299.585938 C 296.847656 299.320312 297.535156 299.085938 298.238281 298.886719 C 298.9375 298.683594 299.644531 298.515625 300.363281 298.378906 C 301.078125 298.242188 301.796875 298.140625 302.523438 298.074219 C 303.25 298.003906 303.976562 297.96875 304.703125 297.964844 C 305.433594 297.964844 306.160156 297.996094 306.886719 298.0625 C 307.613281 298.128906 308.332031 298.230469 309.050781 298.359375 C 309.765625 298.492188 310.472656 298.660156 311.175781 298.859375 C 311.875 299.058594 312.566406 299.289062 313.246094 299.550781 C 313.925781 299.8125 314.59375 300.105469 315.246094 300.429688 C 315.898438 300.753906 316.535156 301.109375 317.152344 301.492188 C 317.773438 301.875 318.375 302.285156 318.957031 302.722656 C 319.535156 303.164062 320.097656 303.628906 320.636719 304.121094 C 358.722656 338.855469 396.824219 373.609375 434.9375 408.378906 C 436.148438 409.480469 437.234375 410.691406 438.191406 412.019531 C 439.148438 413.347656 439.960938 414.757812 440.625 416.253906 C 441.289062 417.75 441.792969 419.300781 442.136719 420.902344 C 442.476562 422.503906 442.648438 424.121094 442.652344 425.757812 Z M 478.78125 422.679688 L 478.726562 422.679688 C 477.28125 422.679688 475.847656 422.539062 474.429688 422.257812 C 473.011719 421.976562 471.636719 421.558594 470.300781 421.007812 C 468.964844 420.453125 467.695312 419.777344 466.496094 418.972656 C 465.292969 418.171875 464.179688 417.261719 463.15625 416.238281 L 320.144531 273.21875 C 319.636719 272.707031 319.101562 272.222656 318.546875 271.765625 C 317.988281 271.308594 317.410156 270.878906 316.8125 270.476562 C 316.210938 270.078125 315.59375 269.707031 314.957031 269.367188 C 314.320312 269.027344 313.671875 268.71875 313.003906 268.441406 C 312.339844 268.164062 311.660156 267.921875 310.96875 267.714844 C 310.28125 267.503906 309.582031 267.328125 308.875 267.1875 C 308.167969 267.046875 307.453125 266.941406 306.738281 266.871094 C 306.019531 266.800781 305.300781 266.765625 304.578125 266.765625 C 303.855469 266.765625 303.136719 266.800781 302.421875 266.871094 C 301.703125 266.941406 300.988281 267.046875 300.28125 267.1875 C 299.574219 267.328125 298.875 267.503906 298.1875 267.714844 C 297.496094 267.921875 296.820312 268.164062 296.152344 268.441406 C 295.484375 268.71875 294.835938 269.027344 294.199219 269.367188 C 293.5625 269.707031 292.945312 270.078125 292.347656 270.476562 C 291.746094 270.878906 291.167969 271.308594 290.609375 271.765625 C 290.054688 272.222656 289.519531 272.707031 289.011719 273.21875 L 145.753906 416.25 C 144.730469 417.269531 143.621094 418.183594 142.417969 418.984375 C 141.214844 419.785156 139.945312 420.460938 138.609375 421.011719 C 137.273438 421.5625 135.898438 421.980469 134.480469 422.261719 C 133.0625 422.539062 131.632812 422.679688 130.1875 422.679688 C 110.617188 422.679688 100.785156 399.027344 114.621094 385.160156 L 289.410156 209.699219 C 289.921875 209.1875 290.457031 208.703125 291.011719 208.242188 C 291.570312 207.78125 292.152344 207.347656 292.75 206.945312 C 293.351562 206.542969 293.972656 206.167969 294.609375 205.828125 C 295.246094 205.484375 295.898438 205.175781 296.566406 204.898438 C 297.234375 204.621094 297.914062 204.375 298.605469 204.164062 C 299.296875 203.953125 300 203.777344 300.707031 203.636719 C 301.417969 203.492188 302.132812 203.386719 302.851562 203.316406 C 303.574219 203.246094 304.292969 203.210938 305.019531 203.210938 C 305.742188 203.210938 306.460938 203.246094 307.183594 203.316406 C 307.902344 203.386719 308.617188 203.492188 309.328125 203.636719 C 310.035156 203.777344 310.738281 203.953125 311.429688 204.164062 C 312.121094 204.375 312.800781 204.621094 313.46875 204.898438 C 314.136719 205.175781 314.789062 205.484375 315.425781 205.828125 C 316.066406 206.167969 316.683594 206.542969 317.285156 206.945312 C 317.886719 207.347656 318.464844 207.78125 319.023438 208.242188 C 319.582031 208.703125 320.113281 209.1875 320.625 209.699219 L 387.210938 276.921875 L 387.210938 240.148438 C 387.210938 239.601562 387.234375 239.0625 387.289062 238.519531 C 387.339844 237.980469 387.421875 237.441406 387.527344 236.910156 C 387.632812 236.375 387.765625 235.847656 387.921875 235.328125 C 388.078125 234.808594 388.261719 234.296875 388.46875 233.792969 C 388.675781 233.292969 388.910156 232.800781 389.164062 232.320312 C 389.421875 231.84375 389.699219 231.375 390 230.925781 C 390.304688 230.472656 390.625 230.035156 390.972656 229.617188 C 391.316406 229.195312 391.679688 228.792969 392.066406 228.410156 C 392.449219 228.023438 392.851562 227.660156 393.269531 227.3125 C 393.691406 226.96875 394.128906 226.644531 394.578125 226.34375 C 395.03125 226.042969 395.496094 225.761719 395.976562 225.507812 C 396.457031 225.25 396.945312 225.015625 397.449219 224.808594 C 397.949219 224.601562 398.460938 224.417969 398.980469 224.261719 C 399.503906 224.101562 400.027344 223.96875 400.5625 223.863281 C 401.09375 223.757812 401.632812 223.679688 402.171875 223.625 C 402.714844 223.570312 403.257812 223.546875 403.800781 223.546875 L 414.730469 223.546875 C 415.273438 223.542969 415.816406 223.570312 416.359375 223.625 C 416.898438 223.675781 417.4375 223.757812 417.96875 223.863281 C 418.503906 223.96875 419.03125 224.101562 419.550781 224.257812 C 420.070312 224.414062 420.582031 224.597656 421.085938 224.804688 C 421.589844 225.015625 422.078125 225.246094 422.558594 225.503906 C 423.039062 225.757812 423.503906 226.039062 423.957031 226.339844 C 424.410156 226.640625 424.84375 226.964844 425.265625 227.308594 C 425.6875 227.65625 426.089844 228.019531 426.472656 228.40625 C 426.859375 228.789062 427.222656 229.191406 427.566406 229.613281 C 427.914062 230.03125 428.234375 230.46875 428.539062 230.921875 C 428.839844 231.375 429.121094 231.839844 429.375 232.320312 C 429.632812 232.796875 429.863281 233.289062 430.070312 233.792969 C 430.28125 234.292969 430.460938 234.804688 430.621094 235.328125 C 430.777344 235.847656 430.910156 236.375 431.015625 236.90625 C 431.121094 237.441406 431.199219 237.976562 431.253906 238.519531 C 431.308594 239.0625 431.332031 239.601562 431.332031 240.148438 L 431.332031 321.523438 L 494.402344 385.203125 C 508.160156 399.09375 498.316406 422.679688 478.769531 422.679688 Z M 478.78125 422.679688 " fill-opacity="1" fill-rule="nonzero"/></g></svg>