<svg xmlns="http://www.w3.org/2000/svg" xmlns:xlink="http://www.w3.org/1999/xlink" width="816" zoomAndPan="magnify" viewBox="0 0 612 791.999994" height="1056" preserveAspectRatio="xMidYMid meet" version="1.0"><defs><clipPath id="25ee1af836"><path d="M 14.65625 123.578125 L 600.40625 123.578125 L 600.40625 709.328125 L 14.65625 709.328125 Z M 14.65625 123.578125 " clip-rule="nonzero"/></clipPath></defs><path fill="#1e1b1e" d="M 308.972656 360.421875 C 278.117188 360.421875 252.980469 385.554688 252.980469 416.453125 C 252.980469 447.351562 278.117188 472.484375 308.972656 472.484375 C 339.871094 472.484375 365.003906 447.351562 365.003906 416.453125 C 365.003906 385.554688 339.871094 360.421875 308.972656 360.421875 Z M 308.972656 360.421875 " fill-opacity="1" fill-rule="nonzero"/><path fill="#1e1b1e" d="M 401.539062 343.933594 C 390.054688 343.933594 380.726562 334.609375 380.726562 323.121094 C 380.726562 311.636719 390.054688 302.3125 401.539062 302.3125 C 413.023438 302.3125 422.351562 311.636719 422.351562 323.121094 C 422.351562 334.609375 413.023438 343.933594 401.539062 343.933594 Z M 308.972656 503.890625 C 260.738281 503.890625 221.535156 464.644531 221.535156 416.453125 C 221.535156 368.21875 260.738281 328.972656 308.972656 328.972656 C 357.207031 328.972656 396.453125 368.21875 396.453125 416.453125 C 396.453125 464.644531 357.203125 503.890625 308.972656 503.890625 Z M 378.441406 272.304688 L 236.621094 272.304688 C 196.230469 272.304688 163.382812 305.152344 163.382812 345.542969 L 163.382812 487.320312 C 163.382812 527.753906 196.230469 560.601562 236.621094 560.601562 L 378.441406 560.601562 C 418.832031 560.601562 451.679688 527.753906 451.679688 487.320312 L 451.679688 345.542969 C 451.679688 305.152344 418.832031 272.304688 378.441406 272.304688 Z M 378.441406 272.304688 " fill-opacity="1" fill-rule="nonzero"/><g clip-path="url(#25ee1af836)"><path fill="#1e1b1e" d="M 485.078125 487.320312 C 485.078125 546.148438 437.226562 594 378.441406 594 L 236.621094 594 C 177.835938 594 129.984375 546.148438 129.984375 487.320312 L 129.984375 345.542969 C 129.984375 286.757812 177.835938 238.863281 236.621094 238.863281 L 378.441406 238.863281 C 437.226562 238.863281 485.078125 286.757812 485.078125 345.542969 Z M 307.53125 123.492188 C 145.75 123.492188 14.613281 254.671875 14.613281 416.453125 C 14.613281 578.234375 145.75 709.414062 307.53125 709.414062 C 469.3125 709.414062 600.449219 578.234375 600.449219 416.453125 C 600.449219 254.671875 469.3125 123.492188 307.53125 123.492188 Z M 307.53125 123.492188 " fill-opacity="1" fill-rule="nonzero"/></g></svg>