<svg xmlns="http://www.w3.org/2000/svg" xmlns:xlink="http://www.w3.org/1999/xlink" width="816" zoomAndPan="magnify" viewBox="0 0 612 791.999994" height="1056" preserveAspectRatio="xMidYMid meet" version="1.0"><defs><clipPath id="9b7560f9fd"><path d="M 17.472656 134 L 594 134 L 594 660 L 17.472656 660 Z M 17.472656 134 " clip-rule="nonzero"/></clipPath></defs><g clip-path="url(#9b7560f9fd)"><path fill="#000000" d="M 349.09375 225.738281 L 351.023438 225.738281 L 358.75 274.480469 C 355.761719 275.644531 353.609375 278.523438 353.609375 281.949219 C 353.609375 286.394531 357.21875 289.960938 361.664062 289.960938 L 374.269531 289.960938 C 378.714844 289.960938 382.320312 286.355469 382.320312 281.949219 C 382.320312 279.324219 381.046875 277.03125 379.078125 275.535156 L 391.503906 242.386719 L 405.710938 276.15625 C 404.144531 277.613281 403.160156 279.691406 403.160156 281.984375 C 403.160156 286.429688 406.769531 290 411.214844 290 L 423.820312 290 C 428.265625 290 431.871094 286.394531 431.871094 281.984375 C 431.871094 278.449219 429.574219 275.5 426.441406 274.445312 L 435.222656 225.664062 C 439.375 225.335938 442.65625 221.910156 442.65625 217.6875 C 442.65625 213.242188 439.050781 209.671875 434.605469 209.671875 L 421.996094 209.671875 C 417.554688 209.671875 413.945312 213.277344 413.945312 217.6875 C 413.945312 221.039062 416.023438 223.914062 418.972656 225.117188 L 413.835938 253.789062 L 398.570312 217.503906 C 397.296875 214.480469 394.164062 212.550781 390.992188 212.585938 C 387.675781 212.660156 384.761719 214.699219 383.632812 217.796875 L 371.355469 250.546875 L 367.089844 223.660156 C 368.769531 222.203125 369.824219 220.054688 369.824219 217.6875 C 369.824219 213.242188 366.21875 209.671875 361.773438 209.671875 L 349.167969 209.671875 C 344.722656 209.671875 341.113281 213.277344 341.113281 217.6875 C 341.113281 222.09375 344.648438 225.738281 349.09375 225.738281 Z M 482.367188 290.984375 C 487.578125 290.984375 495.121094 290.144531 501.460938 286.175781 C 508.273438 281.910156 512.0625 274.988281 512.0625 266.683594 C 512.0625 250.328125 496.433594 245.007812 484.992188 241.109375 C 476.175781 238.125 469.945312 235.71875 469.945312 232.222656 C 469.945312 229.925781 470.636719 228.070312 474.027344 226.539062 C 481.058594 223.367188 491.988281 225.042969 495.957031 226.9375 L 495.957031 235.027344 C 495.957031 239.472656 499.566406 243.042969 504.011719 243.042969 C 508.457031 243.042969 512.0625 239.433594 512.0625 235.027344 L 512.0625 225.589844 C 512.097656 225.226562 512.171875 224.898438 512.171875 224.535156 C 512.171875 213.640625 497.5625 208.6875 484.007812 208.6875 C 465.71875 208.6875 453.878906 217.90625 453.878906 232.183594 C 453.878906 247.449219 468.851562 252.550781 479.820312 256.265625 C 491.222656 260.164062 495.996094 262.457031 495.996094 266.648438 C 495.996094 269.925781 494.71875 271.855469 491.585938 273.242188 C 484.445312 276.449219 473.550781 274.445312 469.945312 272.441406 L 469.945312 264.609375 C 469.945312 260.164062 466.339844 256.59375 461.894531 256.59375 C 457.449219 256.59375 453.839844 260.199219 453.839844 264.609375 L 453.839844 274.625 C 453.839844 275.828125 454.132812 276.921875 454.570312 277.941406 C 457.15625 287.449219 472.023438 290.984375 482.367188 290.984375 Z M 162.734375 225.738281 L 165.320312 225.738281 L 165.320312 277.6875 C 161.3125 278.125 158.179688 281.511719 158.179688 285.628906 C 158.179688 290.070312 161.785156 293.640625 166.230469 293.640625 L 178.835938 293.640625 C 183.28125 293.640625 186.890625 290.035156 186.890625 285.628906 C 186.890625 282.09375 184.59375 279.144531 181.460938 278.085938 L 181.460938 241.4375 L 219.132812 290.144531 C 220.699219 292.148438 223.066406 293.277344 225.507812 293.277344 C 226.382812 293.277344 227.257812 293.132812 228.097656 292.839844 C 231.339844 291.746094 233.5625 288.6875 233.5625 285.261719 L 233.5625 225.519531 C 237.058594 224.644531 239.683594 221.511719 239.683594 217.757812 C 239.683594 213.3125 236.074219 209.746094 231.628906 209.746094 L 219.023438 209.746094 C 214.578125 209.746094 210.972656 213.351562 210.972656 217.757812 C 210.972656 221.65625 213.742188 224.898438 217.421875 225.628906 L 217.421875 261.765625 L 179.75 213.023438 C 178.363281 211.238281 176.285156 210.21875 174.136719 210.035156 C 173.445312 209.855469 172.753906 209.707031 172.023438 209.707031 L 162.769531 209.707031 C 158.324219 209.707031 154.71875 213.3125 154.71875 217.722656 C 154.71875 222.128906 158.289062 225.738281 162.734375 225.738281 Z M 321.292969 502.605469 C 334.082031 503.1875 363.121094 503.40625 395.144531 503.40625 C 441.78125 503.40625 494.71875 502.96875 512.792969 502.566406 C 527.691406 502.238281 536.945312 493.058594 536.945312 478.558594 C 536.945312 468.722656 529.40625 454.664062 512.609375 454.261719 C 470.492188 453.277344 365.816406 452.914062 321.222656 454.296875 C 307.851562 454.699219 297.394531 465.371094 297.394531 478.558594 C 297.355469 491.636719 307.632812 501.984375 321.292969 502.605469 Z M 321.695312 470.398438 C 342.28125 469.746094 375.726562 469.488281 409.867188 469.488281 C 449.324219 469.488281 489.691406 469.851562 512.171875 470.363281 C 520.550781 470.546875 520.808594 478.523438 520.808594 478.597656 C 520.808594 484.351562 518.621094 486.429688 512.425781 486.539062 C 482.113281 487.195312 353.101562 488.03125 322.023438 486.574219 C 317.761719 486.394531 313.425781 483.550781 313.425781 478.597656 C 313.425781 474.078125 316.996094 470.546875 321.695312 470.398438 Z M 544.707031 228.6875 L 548.351562 228.6875 C 552.796875 228.6875 556.402344 225.082031 556.402344 220.671875 C 556.402344 216.265625 552.796875 212.660156 548.351562 212.660156 L 544.707031 212.660156 C 540.261719 212.660156 536.65625 216.265625 536.65625 220.671875 C 536.65625 225.082031 540.261719 228.6875 544.707031 228.6875 Z M 545.035156 202.496094 L 547.476562 202.496094 C 551.921875 202.496094 555.527344 198.886719 555.527344 194.480469 C 555.527344 190.070312 551.921875 186.464844 547.476562 186.464844 L 545.035156 186.464844 C 540.589844 186.464844 536.984375 190.070312 536.984375 194.480469 C 536.984375 198.886719 540.589844 202.496094 545.035156 202.496094 Z M 262.527344 277.210938 C 258.082031 277.210938 254.472656 280.820312 254.472656 285.226562 C 254.472656 289.636719 258.082031 293.242188 262.527344 293.242188 L 271.78125 293.242188 C 272.179688 293.242188 272.546875 293.167969 272.945312 293.132812 C 273.347656 293.207031 273.746094 293.242188 274.148438 293.242188 L 314.953125 293.242188 C 318.5625 293.242188 321.585938 290.835938 322.605469 287.558594 C 323.042969 286.574219 323.261719 285.519531 323.261719 284.351562 L 323.261719 275.097656 C 323.261719 270.65625 319.65625 267.085938 315.210938 267.085938 C 310.765625 267.085938 307.15625 270.691406 307.15625 275.097656 L 307.15625 277.175781 L 282.128906 277.175781 L 282.128906 257.976562 L 293.894531 258.015625 C 295.171875 260.710938 297.941406 262.605469 301.144531 262.605469 C 305.589844 262.605469 309.199219 258.996094 309.199219 254.589844 L 309.199219 245.335938 C 309.199219 240.890625 305.589844 237.320312 301.144531 237.320312 C 297.902344 237.320312 295.171875 239.214844 293.859375 241.949219 L 282.128906 241.910156 L 282.128906 225.882812 L 307.15625 225.882812 L 307.15625 227.414062 C 307.15625 231.855469 310.765625 235.425781 315.210938 235.425781 C 319.65625 235.425781 323.261719 231.820312 323.261719 227.414062 L 323.261719 218.160156 C 323.261719 214.261719 320.457031 211.019531 316.777344 210.289062 C 315.976562 210.035156 315.136719 209.855469 314.226562 209.855469 L 274.148438 209.855469 C 273.964844 209.855469 273.820312 209.890625 273.675781 209.890625 C 273.054688 209.746094 272.4375 209.636719 271.816406 209.636719 L 262.5625 209.636719 C 258.117188 209.636719 254.511719 213.242188 254.511719 217.648438 C 254.511719 222.058594 258.117188 225.664062 262.5625 225.664062 L 266.132812 225.664062 L 266.132812 277.140625 L 262.527344 277.140625 Z M 395.144531 435.390625 C 441.78125 435.390625 494.71875 434.953125 512.792969 434.554688 C 527.691406 434.226562 536.945312 425.042969 536.945312 410.546875 C 536.945312 400.710938 529.40625 386.648438 512.609375 386.246094 C 470.492188 385.261719 365.816406 384.898438 321.222656 386.285156 C 307.851562 386.683594 297.394531 397.359375 297.394531 410.546875 C 297.394531 423.625 307.667969 433.933594 321.332031 434.589844 C 334.046875 435.171875 363.121094 435.390625 395.144531 435.390625 Z M 313.425781 410.546875 C 313.425781 406.027344 316.957031 402.496094 321.695312 402.347656 C 342.28125 401.691406 375.726562 401.4375 409.867188 401.4375 C 449.324219 401.4375 489.691406 401.800781 512.171875 402.3125 C 520.550781 402.496094 520.808594 410.472656 520.808594 410.546875 C 520.808594 416.300781 518.621094 418.378906 512.425781 418.488281 C 482.113281 419.144531 353.101562 419.980469 322.023438 418.523438 C 317.761719 418.339844 313.425781 415.535156 313.425781 410.546875 Z M 203.902344 500.015625 C 214.070312 500.015625 224.269531 497.757812 233.453125 492.988281 C 264.601562 476.8125 278.121094 435.097656 262.417969 403.769531 C 254.472656 387.960938 239.535156 375.71875 221.429688 370.179688 C 203.722656 364.789062 185.433594 366.609375 169.875 375.246094 C 169.839844 375.28125 169.800781 375.28125 169.765625 375.28125 C 169.730469 375.28125 169.691406 375.316406 169.691406 375.355469 C 169.621094 375.390625 169.546875 375.425781 169.472656 375.464844 C 138.90625 392.695312 126.773438 434.808594 143.53125 465.589844 C 155.335938 487.265625 179.675781 500.015625 203.902344 500.015625 Z M 248.0625 410.945312 C 254.875 424.535156 254.144531 441.148438 247.808594 455.027344 L 215.855469 436.847656 L 247.371094 409.636719 C 247.550781 410.109375 247.84375 410.507812 248.0625 410.945312 Z M 216.765625 385.554688 C 224.488281 387.921875 231.519531 391.964844 237.277344 397.140625 L 204.488281 425.480469 L 184.449219 386.246094 C 194.539062 382.53125 205.761719 382.203125 216.765625 385.554688 Z M 170.457031 394.335938 L 194.796875 441.910156 C 194.832031 441.984375 194.90625 442.058594 194.941406 442.128906 C 195.160156 442.53125 195.414062 442.933594 195.707031 443.296875 C 195.816406 443.441406 195.960938 443.585938 196.105469 443.734375 C 196.363281 443.988281 196.617188 444.242188 196.910156 444.5 C 197.089844 444.644531 197.273438 444.789062 197.492188 444.898438 C 197.636719 445.007812 197.78125 445.152344 197.964844 445.226562 L 238.988281 468.542969 C 235.273438 472.660156 230.9375 476.191406 226.019531 478.777344 C 202.773438 490.875 170.203125 480.929688 157.667969 457.976562 C 146.519531 437.429688 152.824219 409.308594 170.457031 394.335938 Z M 534.179688 320.417969 L 132.675781 320.417969 C 128.230469 320.417969 124.625 324.023438 124.625 328.433594 C 124.625 332.839844 128.230469 336.449219 132.675781 336.449219 L 534.179688 336.449219 C 538.621094 336.449219 542.230469 332.839844 542.230469 328.433594 C 542.230469 324.023438 538.621094 320.417969 534.179688 320.417969 Z M 513.519531 522.058594 C 489.144531 520.964844 172.863281 520.964844 149.617188 522.09375 C 136.101562 522.75 125.898438 533.167969 125.898438 546.320312 C 125.898438 559.363281 136.171875 569.707031 149.835938 570.363281 C 162.660156 570.945312 218.257812 571.164062 282.382812 571.164062 C 379.878906 571.164062 497.125 570.691406 513.554688 570.328125 C 528.457031 570 537.710938 560.820312 537.710938 546.320312 C 537.675781 535.097656 529.1875 522.785156 513.519531 522.058594 Z M 513.191406 554.296875 C 486.011719 554.878906 182.734375 555.828125 150.566406 554.335938 C 146.300781 554.152344 141.964844 551.3125 141.964844 546.355469 C 141.964844 541.839844 145.5 538.378906 150.347656 538.160156 C 162.078125 537.613281 248.9375 537.320312 334.847656 537.320312 C 418.28125 537.320312 500.804688 537.578125 512.753906 538.121094 C 521.316406 538.523438 521.570312 546.285156 521.570312 546.355469 C 521.570312 552.074219 519.386719 554.152344 513.191406 554.296875 Z M 590.6875 187.046875 C 589.847656 163.878906 572.980469 139.507812 542.410156 137.6875 C 451.691406 132.367188 225.144531 134.992188 115.804688 140.890625 C 89.539062 142.3125 71.246094 168.394531 71.246094 190.910156 C 71.246094 201.765625 71.246094 213.277344 71.285156 225.300781 C 47.601562 224.171875 34.195312 226.976562 26.035156 234.515625 C 18.453125 241.511719 17.472656 250.546875 17.472656 257.757812 C 17.835938 290.363281 18.164062 319.035156 18.453125 344.679688 C 19.765625 461.183594 20.347656 514.335938 22.570312 597.648438 C 23.410156 629.671875 23.992188 650.835938 58.277344 656.957031 C 68.113281 658.707031 134.570312 659.398438 214.578125 659.398438 C 341.734375 659.398438 503.171875 657.6875 526.164062 655.828125 C 577.023438 651.710938 589.121094 625.589844 591.632812 587.59375 C 594.074219 551.3125 593.347656 259.324219 590.6875 187.046875 Z M 60.792969 632.949219 C 48.585938 630.726562 47.527344 629.160156 46.691406 596.992188 C 44.46875 513.859375 43.886719 460.78125 42.574219 344.390625 C 42.28125 318.742188 41.953125 290.109375 41.589844 257.613281 C 41.589844 253.132812 42.246094 252.292969 42.355469 252.183594 C 43.011719 251.566406 46.617188 249.160156 61.8125 249.160156 C 64.582031 249.160156 67.714844 249.234375 71.285156 249.417969 C 71.429688 304.570312 71.683594 368.105469 71.941406 430.109375 C 72.269531 502.347656 72.558594 570.546875 72.558594 613.167969 C 72.558594 629.707031 68.152344 632.039062 60.792969 632.949219 Z M 567.589844 585.992188 C 565.621094 616.011719 559.136719 628.980469 524.230469 631.820312 C 485.683594 634.917969 191.808594 636.300781 93.582031 634.480469 C 96.679688 626.101562 96.679688 617.613281 96.679688 613.167969 C 96.679688 570.472656 96.386719 502.238281 96.058594 430 C 95.695312 344.535156 95.292969 256.191406 95.292969 190.910156 C 95.292969 181.039062 103.964844 165.628906 117.046875 164.898438 C 225.875 159.035156 450.960938 156.449219 541.027344 161.730469 C 560.519531 162.859375 566.277344 179.363281 566.605469 187.921875 C 569.226562 259.871094 569.957031 550.070312 567.589844 585.992188 Z M 549.515625 239.398438 L 543.90625 239.398438 C 539.460938 239.398438 535.855469 243.003906 535.855469 247.414062 C 535.855469 251.820312 539.460938 255.425781 543.90625 255.425781 L 549.515625 255.425781 C 553.960938 255.425781 557.570312 251.820312 557.570312 247.414062 C 557.570312 243.003906 553.960938 239.398438 549.515625 239.398438 Z M 549.515625 239.398438 " fill-opacity="1" fill-rule="nonzero"/></g></svg>