<svg xmlns="http://www.w3.org/2000/svg" xmlns:xlink="http://www.w3.org/1999/xlink" width="816" zoomAndPan="magnify" viewBox="0 0 612 791.999994" height="1056" preserveAspectRatio="xMidYMid meet" version="1.0"><defs><clipPath id="c095650a2f"><path d="M 14.65625 99.25 L 602.65625 99.25 L 602.65625 687.25 L 14.65625 687.25 Z M 14.65625 99.25 " clip-rule="nonzero"/></clipPath></defs><g clip-path="url(#c095650a2f)"><path fill="#1e1b1e" d="M 477.90625 356.488281 L 477.824219 356.488281 C 474.71875 356.785156 471.527344 356.957031 468.378906 356.957031 C 433.660156 356.957031 401.324219 339.46875 382.304688 310.453125 L 382.304688 468.855469 C 382.304688 533.484375 329.886719 585.902344 265.214844 585.902344 C 200.585938 585.902344 148.167969 533.484375 148.167969 468.855469 C 148.167969 404.183594 200.585938 351.765625 265.214844 351.765625 C 267.683594 351.765625 270.066406 351.980469 272.449219 352.148438 L 272.449219 409.84375 C 270.066406 409.546875 267.726562 409.121094 265.214844 409.121094 C 232.242188 409.121094 205.480469 435.839844 205.480469 468.855469 C 205.480469 501.828125 232.242188 528.59375 265.214844 528.59375 C 298.230469 528.59375 327.375 502.597656 327.375 469.621094 L 327.972656 200.597656 L 383.15625 200.597656 C 388.347656 250.078125 428.253906 288.710938 477.90625 292.371094 Z M 308.65625 99.164062 C 146.253906 99.164062 14.570312 230.847656 14.570312 393.25 C 14.570312 555.652344 146.253906 687.335938 308.65625 687.335938 C 471.058594 687.335938 602.742188 555.652344 602.742188 393.25 C 602.742188 230.847656 471.058594 99.164062 308.65625 99.164062 Z M 308.65625 99.164062 " fill-opacity="1" fill-rule="nonzero"/></g></svg>