<svg xmlns="http://www.w3.org/2000/svg" xmlns:xlink="http://www.w3.org/1999/xlink" width="816" zoomAndPan="magnify" viewBox="0 0 612 791.999994" height="1056" preserveAspectRatio="xMidYMid meet" version="1.0"><defs><clipPath id="61bdb1c533"><path d="M 26.144531 106.007812 L 596.144531 106.007812 L 596.144531 676.007812 L 26.144531 676.007812 Z M 26.144531 106.007812 " clip-rule="nonzero"/></clipPath></defs><path fill="#1e1b1e" d="M 397.675781 432.210938 C 392.601562 444.585938 379.898438 452.585938 367.03125 455.019531 C 354.738281 457.328125 344.59375 453.410156 333.210938 449.65625 C 323.0625 446.316406 313.246094 441.449219 304.132812 435.839844 C 285.945312 424.703125 270.1875 409.773438 257.566406 392.574219 C 253.691406 387.335938 250.101562 381.890625 246.800781 376.242188 C 242.429688 368.777344 238.554688 360.941406 236.53125 352.527344 C 235.667969 349.019531 235.253906 345.433594 235.171875 341.800781 C 235.046875 329.058594 239.914062 316.230469 249.976562 308.023438 C 255.835938 303.238281 264.457031 301.175781 271.011719 304.890625 C 278.148438 308.929688 281.820312 319.035156 285.117188 326.171875 C 287.71875 331.738281 290.644531 339.039062 289.574219 345.308594 C 288.5 351.535156 283.550781 356.816406 279.59375 361.476562 C 276.953125 364.609375 276.539062 367.25 278.765625 370.632812 C 291.800781 392.367188 309.90625 408.164062 333.582031 417.609375 C 336.796875 418.890625 339.273438 418.476562 341.375 415.878906 C 345.460938 410.847656 349.5 401.03125 355.769531 398.429688 C 363.976562 395.050781 373.050781 399.710938 380.023438 403.917969 C 386.496094 407.753906 397.34375 412.535156 399.117188 420.539062 C 399.945312 424.414062 399.203125 428.539062 397.675781 432.210938 Z M 317.042969 243.0625 C 241.316406 243.0625 179.738281 304.640625 179.738281 380.367188 C 179.738281 405.359375 186.710938 429.941406 199.824219 451.554688 L 203.414062 457.371094 L 189.679688 508.554688 L 241.152344 494.777344 L 246.96875 498.203125 C 268.25 510.90625 292.5 517.628906 317.042969 517.628906 C 392.726562 517.628906 454.34375 456.050781 454.34375 380.367188 C 454.34375 304.640625 392.726562 243.0625 317.042969 243.0625 Z M 317.042969 243.0625 " fill-opacity="1" fill-rule="nonzero"/><g clip-path="url(#61bdb1c533)"><path fill="#1e1b1e" d="M 317.042969 549.632812 C 289.035156 549.632812 261.363281 542.582031 236.574219 529.136719 L 144.433594 553.800781 L 168.972656 462.15625 C 155.074219 437.035156 147.734375 408.90625 147.734375 380.367188 C 147.734375 286.988281 223.707031 211.058594 317.042969 211.058594 C 410.378906 211.058594 486.351562 286.988281 486.351562 380.367188 C 486.351562 473.703125 410.378906 549.632812 317.042969 549.632812 Z M 311.144531 105.925781 C 153.714844 105.925781 26.0625 233.578125 26.0625 391.007812 C 26.0625 548.4375 153.714844 676.089844 311.144531 676.089844 C 468.574219 676.089844 596.226562 548.4375 596.226562 391.007812 C 596.226562 233.578125 468.574219 105.925781 311.144531 105.925781 Z M 311.144531 105.925781 " fill-opacity="1" fill-rule="nonzero"/></g></svg>