<svg xmlns="http://www.w3.org/2000/svg" xmlns:xlink="http://www.w3.org/1999/xlink" width="816" zoomAndPan="magnify" viewBox="0 0 612 791.999994" height="1056" preserveAspectRatio="xMidYMid meet" version="1.0"><defs><clipPath id="8e9231f4aa"><path d="M 12.628906 101.953125 L 599.878906 101.953125 L 599.878906 689.203125 L 12.628906 689.203125 Z M 12.628906 101.953125 " clip-rule="nonzero"/></clipPath></defs><g clip-path="url(#8e9231f4aa)"><path fill="#000000" d="M 306.253906 101.953125 C 144.0625 101.953125 12.628906 233.386719 12.628906 395.578125 C 12.628906 557.769531 144.0625 689.203125 306.253906 689.203125 C 468.445312 689.203125 599.878906 557.769531 599.878906 395.578125 C 599.625 233.386719 468.191406 101.953125 306.253906 101.953125 Z M 475.308594 477.691406 C 472.003906 499.300781 453.191406 515.0625 431.332031 515.0625 L 180.921875 515.0625 C 159.058594 515.0625 140.246094 499.300781 136.941406 477.691406 C 133.890625 457.609375 130.839844 429.644531 130.585938 395.324219 C 130.839844 361.003906 133.636719 333.292969 136.941406 312.957031 C 140.246094 291.347656 159.058594 275.585938 180.921875 275.585938 L 431.332031 275.585938 C 453.191406 275.585938 472.003906 291.347656 475.308594 312.957031 C 478.359375 333.039062 481.410156 361.003906 481.664062 395.324219 C 481.410156 429.644531 478.359375 457.609375 475.308594 477.691406 Z M 475.308594 477.691406 " fill-opacity="1" fill-rule="nonzero"/></g><path fill="#000000" d="M 269.136719 347.785156 L 269.136719 443.117188 L 357.859375 395.578125 Z M 269.136719 347.785156 " fill-opacity="1" fill-rule="nonzero"/></svg>